# xmcd
#
# Track frame offsets: 
#        150
#        22273
#        43474
#        65597
#        87720
#
# Disc length: 1450 seconds
#
# Revision: 0
# Processed by: cddbd v1.5.2PL0 Copyright (c) Steve Scherf et al.
# Submitted via: ExactAudioCopy v1.0b3
#
DISCID=4c05a805
DTITLE=天童よしみ - 一声一代
DYEAR=2014
DGENRE=演歌
TTITLE0=一声一代
TTITLE1=みんなの桜
TTITLE2=一声一代（オリジナル・カラオケ）
TTITLE3=一声一代（メロ入りカラオケ）
TTITLE4=みんなの桜（オリジナル・カラオケ）
EXTD=
EXTT0=
EXTT1=
EXTT2=
EXTT3=
EXTT4=
PLAYORDER=
